<?xml version="1.0" standalone="no"?>
<!DOCTYPE svg PUBLIC "-//W3C//DTD SVG 20010904//EN"
 "http://www.w3.org/TR/2001/REC-SVG-20010904/DTD/svg10.dtd">
<svg version="1.0" xmlns="http://www.w3.org/2000/svg"
 width="932.000000pt" height="736.000000pt" viewBox="0 0 932.000000 736.000000"
 preserveAspectRatio="xMidYMid meet">

<g transform="translate(0.000000,736.000000) scale(0.100000,-0.100000)"
fill="#000000" stroke="none">
<path d="M7303 6679 c-114 -11 -221 -42 -338 -98 -285 -136 -484 -381 -566
-697 -20 -76 -23 -113 -23 -249 1 -237 21 -304 193 -631 58 -111 76 -188 75
-317 l-1 -98 471 3 471 4 99 27 c647 175 967 882 672 1482 -195 396 -604 619
-1053 574z m337 -139 c182 -44 386 -173 503 -320 70 -88 149 -245 178 -355 28
-105 31 -326 6 -427 -44 -179 -129 -331 -251 -454 -119 -119 -256 -198 -421
-245 -76 -22 -101 -23 -481 -27 l-402 -3 -6 53 c-14 114 -41 204 -90 298 -169
324 -181 365 -180 585 1 133 4 160 28 240 112 369 393 615 774 675 81 13 243
3 342 -20z"/>
<path d="M8029 5851 c-68 -21 -99 -61 -99 -126 0 -66 49 -109 153 -136 58 -14
74 -31 59 -63 -20 -46 -101 -41 -141 8 -19 23 -34 20 -66 -14 -28 -29 -28 -30
-9 -51 57 -63 187 -83 257 -40 59 36 83 112 53 170 -19 37 -48 54 -121 76 -33
9 -66 22 -72 27 -19 16 -16 46 6 58 30 16 53 12 92 -14 l36 -25 32 33 33 34
-34 24 c-58 44 -119 57 -179 39z"/>
<path d="M6623 5838 c2 -7 24 -102 48 -210 l43 -198 67 0 67 0 33 121 c18 67
36 115 39 107 4 -7 20 -61 36 -120 l29 -108 68 0 c37 0 67 1 67 3 0 1 20 94
45 206 25 112 45 205 45 207 0 2 -29 4 -64 4 l-64 0 -18 -100 c-10 -55 -22
-100 -25 -100 -4 0 -9 14 -13 32 -3 17 -15 62 -27 100 l-20 68 -63 0 -64 0
-28 -105 c-16 -57 -30 -103 -31 -101 -2 2 -10 39 -18 82 -26 136 -16 124 -91
124 -49 0 -65 -3 -61 -12z"/>
<path d="M7250 5640 l0 -210 70 0 70 0 0 210 0 210 -70 0 -70 0 0 -210z"/>
<path d="M7470 5640 l0 -210 65 0 64 0 3 106 3 106 70 -103 70 -104 68 -3 67
-3 0 211 0 210 -65 0 -64 0 -3 -107 -3 -108 -73 108 -72 107 -65 0 -65 0 0
-210z"/>
<path d="M4110 3660 l0 -500 819 0 c497 0 822 -4 826 -9 10 -17 -65 -224 -130
-356 -275 -557 -792 -956 -1388 -1070 -45 -9 -92 -18 -104 -21 l-23 -4 0 -505
0 -505 23 0 c12 0 83 9 157 20 827 122 1573 593 2041 1290 90 134 188 310 245
440 39 90 50 109 59 96 6 -8 172 -294 369 -635 197 -342 362 -621 367 -621 6
0 852 483 867 495 2 2 -306 539 -685 1194 l-688 1191 -1377 0 -1378 0 0 -500z"/>
</g>
</svg>
